<mxfile host="Electron" modified="2024-04-28T18:50:43.841Z" agent="Mozilla/5.0 (Windows NT 10.0; Win64; x64) AppleWebKit/537.36 (KHTML, like Gecko) draw.io/24.2.5 Chrome/120.0.6099.109 Electron/28.1.0 Safari/537.36" etag="-YmOLzHDL48IHSZzDbsk" version="24.2.5" type="device">
  <diagram name="PÃ¡gina-1" id="gt8gnmR9qrkZ01zOa7bS">
    <mxGraphModel dx="1418" dy="820" grid="1" gridSize="10" guides="1" tooltips="1" connect="1" arrows="1" fold="1" page="0" pageScale="1" pageWidth="827" pageHeight="1169" math="0" shadow="0">
      <root>
        <mxCell id="0" />
        <mxCell id="1" parent="0" />
        <mxCell id="HXeTErX0-gzUFL65NSKF-151" value="view: View" style="shape=umlLifeline;perimeter=lifelinePerimeter;whiteSpace=wrap;html=1;container=1;collapsible=0;recursiveResize=0;outlineConnect=0;rounded=1;shadow=0;comic=0;labelBackgroundColor=none;strokeWidth=1;fontFamily=Verdana;fontSize=12;align=center;" parent="1" vertex="1">
          <mxGeometry x="280" y="80" width="100" height="1440" as="geometry" />
        </mxCell>
        <mxCell id="HXeTErX0-gzUFL65NSKF-152" value="" style="html=1;points=[];perimeter=orthogonalPerimeter;rounded=0;shadow=0;comic=0;labelBackgroundColor=none;strokeWidth=1;fontFamily=Verdana;fontSize=12;align=center;" parent="HXeTErX0-gzUFL65NSKF-151" vertex="1">
          <mxGeometry x="45" y="100" width="10" height="50" as="geometry" />
        </mxCell>
        <mxCell id="HXeTErX0-gzUFL65NSKF-153" value="1" style="html=1;verticalAlign=bottom;endArrow=open;dashed=1;endSize=8;edgeStyle=elbowEdgeStyle;elbow=vertical;curved=0;rounded=0;" parent="HXeTErX0-gzUFL65NSKF-151" target="HXeTErX0-gzUFL65NSKF-189" edge="1">
          <mxGeometry relative="1" as="geometry">
            <mxPoint x="45" y="139" as="sourcePoint" />
            <mxPoint x="-35" y="139" as="targetPoint" />
          </mxGeometry>
        </mxCell>
        <mxCell id="HXeTErX0-gzUFL65NSKF-154" value="" style="html=1;points=[];perimeter=orthogonalPerimeter;rounded=0;shadow=0;comic=0;labelBackgroundColor=none;strokeWidth=1;fontFamily=Verdana;fontSize=12;align=center;" parent="HXeTErX0-gzUFL65NSKF-151" vertex="1">
          <mxGeometry x="45" y="170" width="10" height="40" as="geometry" />
        </mxCell>
        <mxCell id="HXeTErX0-gzUFL65NSKF-155" value="" style="html=1;points=[];perimeter=orthogonalPerimeter;rounded=0;shadow=0;comic=0;labelBackgroundColor=none;strokeWidth=1;fontFamily=Verdana;fontSize=12;align=center;" parent="HXeTErX0-gzUFL65NSKF-151" vertex="1">
          <mxGeometry x="45" y="510" width="10" height="40" as="geometry" />
        </mxCell>
        <mxCell id="HXeTErX0-gzUFL65NSKF-156" value="1" style="html=1;verticalAlign=bottom;endArrow=open;dashed=1;endSize=8;edgeStyle=elbowEdgeStyle;elbow=vertical;curved=0;rounded=0;" parent="HXeTErX0-gzUFL65NSKF-151" edge="1">
          <mxGeometry relative="1" as="geometry">
            <mxPoint x="45" y="550" as="sourcePoint" />
            <mxPoint x="-130" y="550" as="targetPoint" />
            <mxPoint x="1" as="offset" />
          </mxGeometry>
        </mxCell>
        <mxCell id="HXeTErX0-gzUFL65NSKF-157" value="2. menuEmployee()" style="html=1;verticalAlign=bottom;endArrow=block;labelBackgroundColor=none;fontFamily=Verdana;fontSize=12;edgeStyle=elbowEdgeStyle;elbow=vertical;" parent="HXeTErX0-gzUFL65NSKF-151" edge="1">
          <mxGeometry relative="1" as="geometry">
            <mxPoint x="-125" y="520" as="sourcePoint" />
            <mxPoint x="45" y="520" as="targetPoint" />
            <Array as="points" />
            <mxPoint as="offset" />
          </mxGeometry>
        </mxCell>
        <mxCell id="HXeTErX0-gzUFL65NSKF-158" value=": Utils" style="shape=umlLifeline;perimeter=lifelinePerimeter;whiteSpace=wrap;html=1;container=1;collapsible=0;recursiveResize=0;outlineConnect=0;rounded=1;shadow=0;comic=0;labelBackgroundColor=none;strokeWidth=1;fontFamily=Verdana;fontSize=12;align=center;" parent="1" vertex="1">
          <mxGeometry x="610" y="80" width="100" height="1440" as="geometry" />
        </mxCell>
        <mxCell id="HXeTErX0-gzUFL65NSKF-159" value="" style="html=1;points=[];perimeter=orthogonalPerimeter;outlineConnect=0;targetShapes=umlLifeline;portConstraint=eastwest;newEdgeStyle={&quot;edgeStyle&quot;:&quot;elbowEdgeStyle&quot;,&quot;elbow&quot;:&quot;vertical&quot;,&quot;curved&quot;:0,&quot;rounded&quot;:0};" parent="HXeTErX0-gzUFL65NSKF-158" vertex="1">
          <mxGeometry x="45" y="300" width="10" height="40" as="geometry" />
        </mxCell>
        <mxCell id="HXeTErX0-gzUFL65NSKF-160" value="username" style="html=1;verticalAlign=bottom;endArrow=open;dashed=1;endSize=8;edgeStyle=elbowEdgeStyle;elbow=vertical;curved=0;rounded=0;" parent="HXeTErX0-gzUFL65NSKF-158" target="HXeTErX0-gzUFL65NSKF-199" edge="1">
          <mxGeometry relative="1" as="geometry">
            <mxPoint x="45" y="330" as="sourcePoint" />
            <mxPoint x="-35" y="330" as="targetPoint" />
          </mxGeometry>
        </mxCell>
        <mxCell id="HXeTErX0-gzUFL65NSKF-161" value="" style="html=1;points=[];perimeter=orthogonalPerimeter;outlineConnect=0;targetShapes=umlLifeline;portConstraint=eastwest;newEdgeStyle={&quot;edgeStyle&quot;:&quot;elbowEdgeStyle&quot;,&quot;elbow&quot;:&quot;vertical&quot;,&quot;curved&quot;:0,&quot;rounded&quot;:0};" parent="HXeTErX0-gzUFL65NSKF-158" vertex="1">
          <mxGeometry x="45" y="350" width="10" height="40" as="geometry" />
        </mxCell>
        <mxCell id="HXeTErX0-gzUFL65NSKF-162" value="" style="html=1;points=[];perimeter=orthogonalPerimeter;outlineConnect=0;targetShapes=umlLifeline;portConstraint=eastwest;newEdgeStyle={&quot;edgeStyle&quot;:&quot;elbowEdgeStyle&quot;,&quot;elbow&quot;:&quot;vertical&quot;,&quot;curved&quot;:0,&quot;rounded&quot;:0};" parent="HXeTErX0-gzUFL65NSKF-158" vertex="1">
          <mxGeometry x="45" y="760" width="10" height="30" as="geometry" />
        </mxCell>
        <mxCell id="HXeTErX0-gzUFL65NSKF-163" value="IdProduct" style="html=1;verticalAlign=bottom;endArrow=open;dashed=1;endSize=8;edgeStyle=elbowEdgeStyle;elbow=vertical;curved=0;rounded=0;" parent="HXeTErX0-gzUFL65NSKF-158" edge="1">
          <mxGeometry x="-0.002" relative="1" as="geometry">
            <mxPoint x="45" y="790" as="sourcePoint" />
            <mxPoint x="-120" y="790" as="targetPoint" />
            <mxPoint as="offset" />
          </mxGeometry>
        </mxCell>
        <mxCell id="HXeTErX0-gzUFL65NSKF-164" value="" style="html=1;points=[];perimeter=orthogonalPerimeter;outlineConnect=0;targetShapes=umlLifeline;portConstraint=eastwest;newEdgeStyle={&quot;edgeStyle&quot;:&quot;elbowEdgeStyle&quot;,&quot;elbow&quot;:&quot;vertical&quot;,&quot;curved&quot;:0,&quot;rounded&quot;:0};" parent="HXeTErX0-gzUFL65NSKF-158" vertex="1">
          <mxGeometry x="45" y="810" width="10" height="30" as="geometry" />
        </mxCell>
        <mxCell id="HXeTErX0-gzUFL65NSKF-165" value="" style="html=1;points=[];perimeter=orthogonalPerimeter;outlineConnect=0;targetShapes=umlLifeline;portConstraint=eastwest;newEdgeStyle={&quot;edgeStyle&quot;:&quot;elbowEdgeStyle&quot;,&quot;elbow&quot;:&quot;vertical&quot;,&quot;curved&quot;:0,&quot;rounded&quot;:0};" parent="HXeTErX0-gzUFL65NSKF-158" vertex="1">
          <mxGeometry x="45" y="860" width="10" height="30" as="geometry" />
        </mxCell>
        <mxCell id="HXeTErX0-gzUFL65NSKF-171" value="" style="html=1;points=[];perimeter=orthogonalPerimeter;outlineConnect=0;targetShapes=umlLifeline;portConstraint=eastwest;newEdgeStyle={&quot;edgeStyle&quot;:&quot;elbowEdgeStyle&quot;,&quot;elbow&quot;:&quot;vertical&quot;,&quot;curved&quot;:0,&quot;rounded&quot;:0};" parent="HXeTErX0-gzUFL65NSKF-158" vertex="1">
          <mxGeometry x="45" y="960" width="10" height="30" as="geometry" />
        </mxCell>
        <mxCell id="HXeTErX0-gzUFL65NSKF-174" value="" style="html=1;points=[];perimeter=orthogonalPerimeter;outlineConnect=0;targetShapes=umlLifeline;portConstraint=eastwest;newEdgeStyle={&quot;edgeStyle&quot;:&quot;elbowEdgeStyle&quot;,&quot;elbow&quot;:&quot;vertical&quot;,&quot;curved&quot;:0,&quot;rounded&quot;:0};" parent="HXeTErX0-gzUFL65NSKF-158" vertex="1">
          <mxGeometry x="45" y="1011" width="10" height="30" as="geometry" />
        </mxCell>
        <mxCell id="HXeTErX0-gzUFL65NSKF-176" value="Selling Price" style="html=1;verticalAlign=bottom;endArrow=open;dashed=1;endSize=8;edgeStyle=elbowEdgeStyle;elbow=vertical;curved=0;rounded=0;" parent="HXeTErX0-gzUFL65NSKF-158" edge="1">
          <mxGeometry relative="1" as="geometry">
            <mxPoint x="45" y="1041" as="sourcePoint" />
            <mxPoint x="-120" y="1041" as="targetPoint" />
          </mxGeometry>
        </mxCell>
        <mxCell id="HXeTErX0-gzUFL65NSKF-177" value="" style="html=1;points=[];perimeter=orthogonalPerimeter;outlineConnect=0;targetShapes=umlLifeline;portConstraint=eastwest;newEdgeStyle={&quot;edgeStyle&quot;:&quot;elbowEdgeStyle&quot;,&quot;elbow&quot;:&quot;vertical&quot;,&quot;curved&quot;:0,&quot;rounded&quot;:0};" parent="HXeTErX0-gzUFL65NSKF-158" vertex="1">
          <mxGeometry x="45" y="1061" width="10" height="30" as="geometry" />
        </mxCell>
        <mxCell id="HXeTErX0-gzUFL65NSKF-178" value="getString()" style="html=1;verticalAlign=bottom;endArrow=block;edgeStyle=elbowEdgeStyle;elbow=vertical;curved=0;rounded=0;" parent="HXeTErX0-gzUFL65NSKF-158" edge="1">
          <mxGeometry width="80" relative="1" as="geometry">
            <mxPoint x="-120" y="1061" as="sourcePoint" />
            <mxPoint x="45" y="1061" as="targetPoint" />
          </mxGeometry>
        </mxCell>
        <mxCell id="HXeTErX0-gzUFL65NSKF-179" value="Brand" style="html=1;verticalAlign=bottom;endArrow=open;dashed=1;endSize=8;edgeStyle=elbowEdgeStyle;elbow=vertical;curved=0;rounded=0;" parent="HXeTErX0-gzUFL65NSKF-158" edge="1">
          <mxGeometry relative="1" as="geometry">
            <mxPoint x="45" y="1091" as="sourcePoint" />
            <mxPoint x="-120" y="1091" as="targetPoint" />
          </mxGeometry>
        </mxCell>
        <mxCell id="HXeTErX0-gzUFL65NSKF-183" value="" style="html=1;points=[];perimeter=orthogonalPerimeter;outlineConnect=0;targetShapes=umlLifeline;portConstraint=eastwest;newEdgeStyle={&quot;edgeStyle&quot;:&quot;elbowEdgeStyle&quot;,&quot;elbow&quot;:&quot;vertical&quot;,&quot;curved&quot;:0,&quot;rounded&quot;:0};" parent="HXeTErX0-gzUFL65NSKF-158" vertex="1">
          <mxGeometry x="45" y="1120" width="10" height="30" as="geometry" />
        </mxCell>
        <mxCell id="HXeTErX0-gzUFL65NSKF-184" value="getBool()" style="html=1;verticalAlign=bottom;endArrow=block;edgeStyle=elbowEdgeStyle;elbow=vertical;curved=0;rounded=0;" parent="HXeTErX0-gzUFL65NSKF-158" edge="1">
          <mxGeometry width="80" relative="1" as="geometry">
            <mxPoint x="-120" y="1120" as="sourcePoint" />
            <mxPoint x="45" y="1120" as="targetPoint" />
          </mxGeometry>
        </mxCell>
        <mxCell id="HXeTErX0-gzUFL65NSKF-185" value="isAvailable" style="html=1;verticalAlign=bottom;endArrow=open;dashed=1;endSize=8;edgeStyle=elbowEdgeStyle;elbow=vertical;curved=0;rounded=0;" parent="HXeTErX0-gzUFL65NSKF-158" edge="1">
          <mxGeometry relative="1" as="geometry">
            <mxPoint x="45" y="1150" as="sourcePoint" />
            <mxPoint x="-120" y="1150" as="targetPoint" />
          </mxGeometry>
        </mxCell>
        <mxCell id="HXeTErX0-gzUFL65NSKF-218" value="" style="html=1;points=[];perimeter=orthogonalPerimeter;outlineConnect=0;targetShapes=umlLifeline;portConstraint=eastwest;newEdgeStyle={&quot;edgeStyle&quot;:&quot;elbowEdgeStyle&quot;,&quot;elbow&quot;:&quot;vertical&quot;,&quot;curved&quot;:0,&quot;rounded&quot;:0};" parent="HXeTErX0-gzUFL65NSKF-158" vertex="1">
          <mxGeometry x="45" y="910" width="10" height="30" as="geometry" />
        </mxCell>
        <mxCell id="HXeTErX0-gzUFL65NSKF-206" value="getNumber()" style="html=1;verticalAlign=bottom;endArrow=block;edgeStyle=elbowEdgeStyle;elbow=vertical;curved=0;rounded=0;" parent="HXeTErX0-gzUFL65NSKF-158" edge="1">
          <mxGeometry width="80" relative="1" as="geometry">
            <mxPoint x="-120" y="760" as="sourcePoint" />
            <mxPoint x="45" y="760" as="targetPoint" />
          </mxGeometry>
        </mxCell>
        <mxCell id="HXeTErX0-gzUFL65NSKF-186" value="model: CompoStore" style="shape=umlLifeline;perimeter=lifelinePerimeter;whiteSpace=wrap;html=1;container=1;collapsible=0;recursiveResize=0;outlineConnect=0;rounded=1;shadow=0;comic=0;labelBackgroundColor=none;strokeWidth=1;fontFamily=Verdana;fontSize=12;align=center;" parent="1" vertex="1">
          <mxGeometry x="760" y="80" width="100" height="1440" as="geometry" />
        </mxCell>
        <mxCell id="HXeTErX0-gzUFL65NSKF-187" value="" style="html=1;points=[];perimeter=orthogonalPerimeter;outlineConnect=0;targetShapes=umlLifeline;portConstraint=eastwest;newEdgeStyle={&quot;edgeStyle&quot;:&quot;elbowEdgeStyle&quot;,&quot;elbow&quot;:&quot;vertical&quot;,&quot;curved&quot;:0,&quot;rounded&quot;:0};" parent="HXeTErX0-gzUFL65NSKF-186" vertex="1">
          <mxGeometry x="45" y="1300" width="10" height="40" as="geometry" />
        </mxCell>
        <mxCell id="HXeTErX0-gzUFL65NSKF-188" value="productList" style="html=1;verticalAlign=bottom;endArrow=open;dashed=1;endSize=8;edgeStyle=elbowEdgeStyle;elbow=vertical;curved=0;rounded=0;" parent="HXeTErX0-gzUFL65NSKF-186" target="HXeTErX0-gzUFL65NSKF-189" edge="1">
          <mxGeometry x="0.0831" y="1" relative="1" as="geometry">
            <mxPoint x="45" y="1339" as="sourcePoint" />
            <mxPoint x="-35" y="1339" as="targetPoint" />
            <mxPoint as="offset" />
          </mxGeometry>
        </mxCell>
        <mxCell id="HXeTErX0-gzUFL65NSKF-189" value="controller: Controller" style="shape=umlLifeline;perimeter=lifelinePerimeter;whiteSpace=wrap;html=1;container=1;collapsible=0;recursiveResize=0;outlineConnect=0;rounded=1;shadow=0;comic=0;labelBackgroundColor=none;strokeWidth=1;fontFamily=Verdana;fontSize=12;align=center;" parent="1" vertex="1">
          <mxGeometry x="100" y="80" width="100" height="1440" as="geometry" />
        </mxCell>
        <mxCell id="HXeTErX0-gzUFL65NSKF-190" value="" style="html=1;points=[];perimeter=orthogonalPerimeter;rounded=0;shadow=0;comic=0;labelBackgroundColor=none;strokeWidth=1;fontFamily=Verdana;fontSize=12;align=center;" parent="HXeTErX0-gzUFL65NSKF-189" vertex="1">
          <mxGeometry x="45" y="100" width="10" height="1320" as="geometry" />
        </mxCell>
        <mxCell id="HXeTErX0-gzUFL65NSKF-191" value="insertCredentials()" style="html=1;verticalAlign=bottom;endArrow=block;edgeStyle=elbowEdgeStyle;elbow=vertical;curved=0;rounded=0;" parent="HXeTErX0-gzUFL65NSKF-189" target="HXeTErX0-gzUFL65NSKF-200" edge="1">
          <mxGeometry width="80" relative="1" as="geometry">
            <mxPoint x="55" y="240" as="sourcePoint" />
            <mxPoint x="135" y="240" as="targetPoint" />
          </mxGeometry>
        </mxCell>
        <mxCell id="HXeTErX0-gzUFL65NSKF-192" value="Login()" style="html=1;verticalAlign=bottom;endArrow=block;edgeStyle=elbowEdgeStyle;elbow=vertical;curved=0;rounded=0;" parent="HXeTErX0-gzUFL65NSKF-189" target="HXeTErX0-gzUFL65NSKF-210" edge="1">
          <mxGeometry x="0.0006" width="80" relative="1" as="geometry">
            <mxPoint x="55" y="457" as="sourcePoint" />
            <mxPoint x="890" y="457" as="targetPoint" />
            <mxPoint as="offset" />
          </mxGeometry>
        </mxCell>
        <mxCell id="HXeTErX0-gzUFL65NSKF-193" value="editProduct()" style="html=1;verticalAlign=bottom;endArrow=block;edgeStyle=elbowEdgeStyle;elbow=vertical;curved=0;rounded=0;" parent="HXeTErX0-gzUFL65NSKF-189" target="HXeTErX0-gzUFL65NSKF-203" edge="1">
          <mxGeometry width="80" relative="1" as="geometry">
            <mxPoint x="55" y="631" as="sourcePoint" />
            <mxPoint x="350" y="631" as="targetPoint" />
          </mxGeometry>
        </mxCell>
        <mxCell id="HXeTErX0-gzUFL65NSKF-194" value="getProductList()" style="html=1;verticalAlign=bottom;endArrow=block;edgeStyle=elbowEdgeStyle;elbow=vertical;curved=0;rounded=0;" parent="HXeTErX0-gzUFL65NSKF-189" target="HXeTErX0-gzUFL65NSKF-187" edge="1">
          <mxGeometry x="-0.1231" width="80" relative="1" as="geometry">
            <mxPoint x="55" y="1300" as="sourcePoint" />
            <mxPoint x="690" y="1300" as="targetPoint" />
            <mxPoint as="offset" />
          </mxGeometry>
        </mxCell>
        <mxCell id="HXeTErX0-gzUFL65NSKF-195" value="edit(product)" style="html=1;verticalAlign=bottom;endArrow=block;edgeStyle=elbowEdgeStyle;elbow=vertical;curved=0;rounded=0;" parent="HXeTErX0-gzUFL65NSKF-189" target="HXeTErX0-gzUFL65NSKF-222" edge="1">
          <mxGeometry width="80" relative="1" as="geometry">
            <mxPoint x="55" y="1360" as="sourcePoint" />
            <mxPoint x="135" y="1360" as="targetPoint" />
          </mxGeometry>
        </mxCell>
        <mxCell id="HXeTErX0-gzUFL65NSKF-196" value="1. menuMain()" style="html=1;verticalAlign=bottom;endArrow=block;labelBackgroundColor=none;fontFamily=Verdana;fontSize=12;edgeStyle=elbowEdgeStyle;elbow=vertical;entryX=0.5;entryY=0.043;entryDx=0;entryDy=0;entryPerimeter=0;" parent="1" source="HXeTErX0-gzUFL65NSKF-190" target="HXeTErX0-gzUFL65NSKF-152" edge="1">
          <mxGeometry relative="1" as="geometry">
            <mxPoint x="220" y="190" as="sourcePoint" />
            <mxPoint x="280" y="190" as="targetPoint" />
            <Array as="points" />
          </mxGeometry>
        </mxCell>
        <mxCell id="HXeTErX0-gzUFL65NSKF-197" value="2" style="html=1;verticalAlign=bottom;endArrow=open;dashed=1;endSize=8;edgeStyle=elbowEdgeStyle;elbow=vertical;curved=0;rounded=0;" parent="1" edge="1">
          <mxGeometry relative="1" as="geometry">
            <mxPoint x="325" y="290" as="sourcePoint" />
            <mxPoint x="150" y="290" as="targetPoint" />
            <mxPoint x="1" as="offset" />
          </mxGeometry>
        </mxCell>
        <mxCell id="HXeTErX0-gzUFL65NSKF-198" value="2. menuLogin()" style="html=1;verticalAlign=bottom;endArrow=block;labelBackgroundColor=none;fontFamily=Verdana;fontSize=12;edgeStyle=elbowEdgeStyle;elbow=vertical;" parent="1" edge="1">
          <mxGeometry relative="1" as="geometry">
            <mxPoint x="155" y="260" as="sourcePoint" />
            <mxPoint x="325" y="260" as="targetPoint" />
            <Array as="points" />
            <mxPoint as="offset" />
          </mxGeometry>
        </mxCell>
        <mxCell id="HXeTErX0-gzUFL65NSKF-199" value="viewLogin: ViewLogin&amp;nbsp;" style="shape=umlLifeline;perimeter=lifelinePerimeter;whiteSpace=wrap;html=1;container=1;collapsible=0;recursiveResize=0;outlineConnect=0;rounded=1;shadow=0;comic=0;labelBackgroundColor=none;strokeWidth=1;fontFamily=Verdana;fontSize=12;align=center;" parent="1" vertex="1">
          <mxGeometry x="410" y="80" width="150" height="1440" as="geometry" />
        </mxCell>
        <mxCell id="HXeTErX0-gzUFL65NSKF-200" value="" style="html=1;points=[];perimeter=orthogonalPerimeter;outlineConnect=0;targetShapes=umlLifeline;portConstraint=eastwest;newEdgeStyle={&quot;edgeStyle&quot;:&quot;elbowEdgeStyle&quot;,&quot;elbow&quot;:&quot;vertical&quot;,&quot;curved&quot;:0,&quot;rounded&quot;:0};" parent="HXeTErX0-gzUFL65NSKF-199" vertex="1">
          <mxGeometry x="70" y="230" width="10" height="200" as="geometry" />
        </mxCell>
        <mxCell id="HXeTErX0-gzUFL65NSKF-201" value="getString()" style="html=1;verticalAlign=bottom;endArrow=block;edgeStyle=elbowEdgeStyle;elbow=vertical;curved=0;rounded=0;" parent="HXeTErX0-gzUFL65NSKF-199" target="HXeTErX0-gzUFL65NSKF-158" edge="1">
          <mxGeometry x="0.0029" width="80" relative="1" as="geometry">
            <mxPoint x="80" y="310" as="sourcePoint" />
            <mxPoint x="160" y="320" as="targetPoint" />
            <Array as="points">
              <mxPoint x="200" y="310" />
            </Array>
            <mxPoint as="offset" />
          </mxGeometry>
        </mxCell>
        <mxCell id="HXeTErX0-gzUFL65NSKF-202" value="&amp;lt;&amp;lt;verify&amp;gt;&amp;gt;" style="html=1;verticalAlign=bottom;endArrow=block;edgeStyle=elbowEdgeStyle;elbow=vertical;curved=0;rounded=0;" parent="HXeTErX0-gzUFL65NSKF-199" edge="1">
          <mxGeometry width="80" relative="1" as="geometry">
            <mxPoint x="80" y="420" as="sourcePoint" />
            <mxPoint x="290" y="420" as="targetPoint" />
          </mxGeometry>
        </mxCell>
        <mxCell id="HXeTErX0-gzUFL65NSKF-203" value="" style="html=1;points=[];perimeter=orthogonalPerimeter;outlineConnect=0;targetShapes=umlLifeline;portConstraint=eastwest;newEdgeStyle={&quot;edgeStyle&quot;:&quot;elbowEdgeStyle&quot;,&quot;elbow&quot;:&quot;vertical&quot;,&quot;curved&quot;:0,&quot;rounded&quot;:0};" parent="HXeTErX0-gzUFL65NSKF-199" vertex="1">
          <mxGeometry x="70" y="631" width="10" height="629" as="geometry" />
        </mxCell>
        <mxCell id="HXeTErX0-gzUFL65NSKF-204" value="" style="html=1;points=[];perimeter=orthogonalPerimeter;outlineConnect=0;targetShapes=umlLifeline;portConstraint=eastwest;newEdgeStyle={&quot;edgeStyle&quot;:&quot;elbowEdgeStyle&quot;,&quot;elbow&quot;:&quot;vertical&quot;,&quot;curved&quot;:0,&quot;rounded&quot;:0};" parent="HXeTErX0-gzUFL65NSKF-199" vertex="1">
          <mxGeometry x="80" y="651" width="10" height="40" as="geometry" />
        </mxCell>
        <mxCell id="HXeTErX0-gzUFL65NSKF-205" value="getDate()" style="html=1;align=left;spacingLeft=2;endArrow=block;rounded=0;edgeStyle=orthogonalEdgeStyle;curved=0;rounded=0;exitX=1;exitY=0;exitDx=0;exitDy=0;exitPerimeter=0;" parent="HXeTErX0-gzUFL65NSKF-199" source="HXeTErX0-gzUFL65NSKF-203" target="HXeTErX0-gzUFL65NSKF-204" edge="1">
          <mxGeometry relative="1" as="geometry">
            <mxPoint x="85" y="631" as="sourcePoint" />
            <Array as="points">
              <mxPoint x="115" y="631" />
              <mxPoint x="115" y="661" />
            </Array>
          </mxGeometry>
        </mxCell>
        <mxCell id="HXeTErX0-gzUFL65NSKF-207" value="&amp;lt;&amp;lt;edit&amp;gt;&amp;gt;" style="html=1;verticalAlign=bottom;endArrow=block;edgeStyle=elbowEdgeStyle;elbow=vertical;curved=0;rounded=0;entryX=0;entryY=0.333;entryDx=0;entryDy=0;entryPerimeter=0;" parent="HXeTErX0-gzUFL65NSKF-199" target="HXeTErX0-gzUFL65NSKF-221" edge="1">
          <mxGeometry width="80" relative="1" as="geometry">
            <mxPoint x="80" y="1230" as="sourcePoint" />
            <mxPoint x="280" y="1230" as="targetPoint" />
          </mxGeometry>
        </mxCell>
        <mxCell id="HXeTErX0-gzUFL65NSKF-208" value="product" style="html=1;verticalAlign=bottom;endArrow=open;dashed=1;endSize=8;edgeStyle=elbowEdgeStyle;elbow=vertical;curved=0;rounded=0;" parent="HXeTErX0-gzUFL65NSKF-199" target="HXeTErX0-gzUFL65NSKF-189" edge="1">
          <mxGeometry x="0.1498" relative="1" as="geometry">
            <mxPoint x="70" y="1260" as="sourcePoint" />
            <mxPoint x="-10" y="1260" as="targetPoint" />
            <mxPoint as="offset" />
          </mxGeometry>
        </mxCell>
        <mxCell id="HXeTErX0-gzUFL65NSKF-209" value="Employee: Employee" style="shape=umlLifeline;perimeter=lifelinePerimeter;whiteSpace=wrap;html=1;container=1;collapsible=0;recursiveResize=0;outlineConnect=0;rounded=1;shadow=0;comic=0;labelBackgroundColor=none;strokeWidth=1;fontFamily=Verdana;fontSize=12;align=center;" parent="1" vertex="1">
          <mxGeometry x="900" y="80" width="200" height="1440" as="geometry" />
        </mxCell>
        <mxCell id="HXeTErX0-gzUFL65NSKF-210" value="" style="html=1;points=[];perimeter=orthogonalPerimeter;outlineConnect=0;targetShapes=umlLifeline;portConstraint=eastwest;newEdgeStyle={&quot;edgeStyle&quot;:&quot;elbowEdgeStyle&quot;,&quot;elbow&quot;:&quot;vertical&quot;,&quot;curved&quot;:0,&quot;rounded&quot;:0};" parent="HXeTErX0-gzUFL65NSKF-209" vertex="1">
          <mxGeometry x="95" y="447" width="10" height="50" as="geometry" />
        </mxCell>
        <mxCell id="HXeTErX0-gzUFL65NSKF-211" value="Employee: Employee" style="html=1;whiteSpace=wrap;" parent="1" vertex="1">
          <mxGeometry x="700" y="480" width="90" height="30" as="geometry" />
        </mxCell>
        <mxCell id="HXeTErX0-gzUFL65NSKF-212" value="getString()" style="html=1;verticalAlign=bottom;endArrow=block;edgeStyle=elbowEdgeStyle;elbow=vertical;curved=0;rounded=0;" parent="1" edge="1">
          <mxGeometry x="0.0029" width="80" relative="1" as="geometry">
            <mxPoint x="490" y="440" as="sourcePoint" />
            <mxPoint x="660" y="440" as="targetPoint" />
            <Array as="points">
              <mxPoint x="610" y="440" />
            </Array>
            <mxPoint as="offset" />
          </mxGeometry>
        </mxCell>
        <mxCell id="HXeTErX0-gzUFL65NSKF-213" value="password" style="html=1;verticalAlign=bottom;endArrow=open;dashed=1;endSize=8;edgeStyle=elbowEdgeStyle;elbow=vertical;curved=0;rounded=0;" parent="1" source="HXeTErX0-gzUFL65NSKF-161" edge="1">
          <mxGeometry relative="1" as="geometry">
            <mxPoint x="650" y="460" as="sourcePoint" />
            <mxPoint x="490" y="460" as="targetPoint" />
          </mxGeometry>
        </mxCell>
        <mxCell id="HXeTErX0-gzUFL65NSKF-214" value="menuEmployee" style="html=1;verticalAlign=bottom;endArrow=open;dashed=1;endSize=8;edgeStyle=elbowEdgeStyle;elbow=vertical;curved=0;rounded=0;entryX=1.1;entryY=0.94;entryDx=0;entryDy=0;entryPerimeter=0;exitX=0.5;exitY=0.824;exitDx=0;exitDy=0;exitPerimeter=0;" parent="1" source="HXeTErX0-gzUFL65NSKF-210" edge="1">
          <mxGeometry x="-0.0047" relative="1" as="geometry">
            <mxPoint x="990" y="568" as="sourcePoint" />
            <mxPoint x="156" y="568.2" as="targetPoint" />
            <mxPoint as="offset" />
          </mxGeometry>
        </mxCell>
        <mxCell id="HXeTErX0-gzUFL65NSKF-215" value="Employee" style="html=1;verticalAlign=bottom;endArrow=open;dashed=1;endSize=8;edgeStyle=elbowEdgeStyle;elbow=vertical;curved=0;rounded=0;" parent="1" source="HXeTErX0-gzUFL65NSKF-199" edge="1">
          <mxGeometry x="0.1233" relative="1" as="geometry">
            <mxPoint x="225" y="510" as="sourcePoint" />
            <mxPoint x="156" y="510" as="targetPoint" />
            <Array as="points">
              <mxPoint x="430" y="510" />
            </Array>
            <mxPoint as="offset" />
          </mxGeometry>
        </mxCell>
        <mxCell id="HXeTErX0-gzUFL65NSKF-216" value="getString()" style="html=1;verticalAlign=bottom;endArrow=block;edgeStyle=elbowEdgeStyle;elbow=vertical;curved=0;rounded=0;" parent="1" edge="1">
          <mxGeometry width="80" relative="1" as="geometry">
            <mxPoint x="490" y="890" as="sourcePoint" />
            <mxPoint x="655" y="890" as="targetPoint" />
          </mxGeometry>
        </mxCell>
        <mxCell id="HXeTErX0-gzUFL65NSKF-217" value="Name" style="html=1;verticalAlign=bottom;endArrow=open;dashed=1;endSize=8;edgeStyle=elbowEdgeStyle;elbow=vertical;curved=0;rounded=0;" parent="1" edge="1">
          <mxGeometry relative="1" as="geometry">
            <mxPoint x="655" y="920" as="sourcePoint" />
            <mxPoint x="490" y="920" as="targetPoint" />
          </mxGeometry>
        </mxCell>
        <mxCell id="HXeTErX0-gzUFL65NSKF-219" value="getString()" style="html=1;verticalAlign=bottom;endArrow=block;edgeStyle=elbowEdgeStyle;elbow=vertical;curved=0;rounded=0;" parent="1" edge="1">
          <mxGeometry width="80" relative="1" as="geometry">
            <mxPoint x="490" y="990" as="sourcePoint" />
            <mxPoint x="655" y="990" as="targetPoint" />
          </mxGeometry>
        </mxCell>
        <mxCell id="HXeTErX0-gzUFL65NSKF-220" value="Category" style="html=1;verticalAlign=bottom;endArrow=open;dashed=1;endSize=8;edgeStyle=elbowEdgeStyle;elbow=vertical;curved=0;rounded=0;" parent="1" edge="1">
          <mxGeometry relative="1" as="geometry">
            <mxPoint x="655" y="1020" as="sourcePoint" />
            <mxPoint x="490" y="1020" as="targetPoint" />
          </mxGeometry>
        </mxCell>
        <mxCell id="HXeTErX0-gzUFL65NSKF-221" value="product: Product" style="html=1;whiteSpace=wrap;" parent="1" vertex="1">
          <mxGeometry x="700" y="1300" width="90" height="30" as="geometry" />
        </mxCell>
        <mxCell id="HXeTErX0-gzUFL65NSKF-222" value="productList: ProductList" style="shape=umlLifeline;perimeter=lifelinePerimeter;whiteSpace=wrap;html=1;container=1;collapsible=0;recursiveResize=0;outlineConnect=0;rounded=1;shadow=0;comic=0;labelBackgroundColor=none;strokeWidth=1;fontFamily=Verdana;fontSize=12;align=center;" parent="1" vertex="1">
          <mxGeometry x="1120" y="80" width="200" height="1440" as="geometry" />
        </mxCell>
        <mxCell id="HXeTErX0-gzUFL65NSKF-223" value="" style="html=1;points=[];perimeter=orthogonalPerimeter;outlineConnect=0;targetShapes=umlLifeline;portConstraint=eastwest;newEdgeStyle={&quot;edgeStyle&quot;:&quot;elbowEdgeStyle&quot;,&quot;elbow&quot;:&quot;vertical&quot;,&quot;curved&quot;:0,&quot;rounded&quot;:0};" parent="HXeTErX0-gzUFL65NSKF-222" vertex="1">
          <mxGeometry x="95" y="1360" width="10" height="40" as="geometry" />
        </mxCell>
        <mxCell id="HXeTErX0-gzUFL65NSKF-224" value="return" style="html=1;verticalAlign=bottom;endArrow=open;dashed=1;endSize=8;edgeStyle=elbowEdgeStyle;elbow=vertical;curved=0;rounded=0;" parent="HXeTErX0-gzUFL65NSKF-222" target="HXeTErX0-gzUFL65NSKF-189" edge="1">
          <mxGeometry relative="1" as="geometry">
            <mxPoint x="90" y="1400" as="sourcePoint" />
            <mxPoint x="10" y="1400" as="targetPoint" />
          </mxGeometry>
        </mxCell>
        <mxCell id="HXeTErX0-gzUFL65NSKF-225" value="" style="html=1;points=[];perimeter=orthogonalPerimeter;rounded=0;shadow=0;comic=0;labelBackgroundColor=none;strokeWidth=1;fontFamily=Verdana;fontSize=12;align=center;" parent="1" vertex="1">
          <mxGeometry x="325" y="640" width="10" height="40" as="geometry" />
        </mxCell>
        <mxCell id="HXeTErX0-gzUFL65NSKF-226" value="2" style="html=1;verticalAlign=bottom;endArrow=open;dashed=1;endSize=8;edgeStyle=elbowEdgeStyle;elbow=vertical;curved=0;rounded=0;" parent="1" edge="1">
          <mxGeometry relative="1" as="geometry">
            <mxPoint x="325" y="680" as="sourcePoint" />
            <mxPoint x="150" y="680" as="targetPoint" />
            <mxPoint x="1" as="offset" />
          </mxGeometry>
        </mxCell>
        <mxCell id="HXeTErX0-gzUFL65NSKF-227" value="2. menuManageProducts()" style="html=1;verticalAlign=bottom;endArrow=block;labelBackgroundColor=none;fontFamily=Verdana;fontSize=12;edgeStyle=elbowEdgeStyle;elbow=vertical;" parent="1" edge="1">
          <mxGeometry relative="1" as="geometry">
            <mxPoint x="155" y="650" as="sourcePoint" />
            <mxPoint x="325" y="650" as="targetPoint" />
            <Array as="points" />
            <mxPoint as="offset" />
          </mxGeometry>
        </mxCell>
        <mxCell id="HXeTErX0-gzUFL65NSKF-172" value="getString()" style="html=1;verticalAlign=bottom;endArrow=block;edgeStyle=elbowEdgeStyle;elbow=vertical;curved=0;rounded=0;" parent="1" edge="1">
          <mxGeometry width="80" relative="1" as="geometry">
            <mxPoint x="490" y="1040" as="sourcePoint" />
            <mxPoint x="655" y="1040" as="targetPoint" />
          </mxGeometry>
        </mxCell>
        <mxCell id="HXeTErX0-gzUFL65NSKF-173" value="description" style="html=1;verticalAlign=bottom;endArrow=open;dashed=1;endSize=8;edgeStyle=elbowEdgeStyle;elbow=vertical;curved=0;rounded=0;" parent="1" edge="1">
          <mxGeometry relative="1" as="geometry">
            <mxPoint x="655" y="1070" as="sourcePoint" />
            <mxPoint x="490" y="1070" as="targetPoint" />
          </mxGeometry>
        </mxCell>
        <mxCell id="HXeTErX0-gzUFL65NSKF-175" value="getFloat()" style="html=1;verticalAlign=bottom;endArrow=block;edgeStyle=elbowEdgeStyle;elbow=vertical;curved=0;rounded=0;" parent="1" edge="1">
          <mxGeometry width="80" relative="1" as="geometry">
            <mxPoint x="490" y="1091" as="sourcePoint" />
            <mxPoint x="655" y="1091" as="targetPoint" />
          </mxGeometry>
        </mxCell>
        <mxCell id="HXeTErX0-gzUFL65NSKF-167" value="Stock" style="html=1;verticalAlign=bottom;endArrow=open;dashed=1;endSize=8;edgeStyle=elbowEdgeStyle;elbow=horizontal;curved=0;rounded=0;" parent="1" edge="1">
          <mxGeometry relative="1" as="geometry">
            <mxPoint x="655" y="969" as="sourcePoint" />
            <mxPoint x="490" y="969" as="targetPoint" />
          </mxGeometry>
        </mxCell>
        <mxCell id="HXeTErX0-gzUFL65NSKF-166" value="getNumber()" style="html=1;verticalAlign=bottom;endArrow=block;edgeStyle=elbowEdgeStyle;elbow=vertical;curved=0;rounded=0;" parent="1" edge="1">
          <mxGeometry width="80" relative="1" as="geometry">
            <mxPoint x="490" y="940" as="sourcePoint" />
            <mxPoint x="655" y="940" as="targetPoint" />
          </mxGeometry>
        </mxCell>
      </root>
    </mxGraphModel>
  </diagram>
</mxfile>
